# xmcd
# 
# Track frame offsets:
#     150
#     16116
#     35252
#     51512
#     65664
#     79618
#     95494
#     110605
#     129599
#     148254
#     167795
#     181399
# 
# Disc length: 2644
# 
# Revision: 0
# Processed by: cddbd v1.5.2PL0 Copyright (c) Steve Scherf et al.
# Submitted via: BonkEnc v1.0.6
# 
DISCID=a60a520c
DTITLE=Laura Bryna - Trying to Be Me
DYEAR=2008
DGENRE=Country
TTITLE0=Life Is Good
TTITLE1=Maybe She Fell
TTITLE2=Set It on Fire
TTITLE3=Room
TTITLE4=Same Dog
TTITLE5=Make a Wish
TTITLE6=Out the Window
TTITLE7=640 Battlefield Dr.
TTITLE8=According to the Radio
TTITLE9=She Can't Save Him
TTITLE10=No Man's Land
TTITLE11=Smoke From a Bridge You Burned
EXTD=
EXTT0=
EXTT1=
EXTT2=
EXTT3=
EXTT4=
EXTT5=
EXTT6=
EXTT7=
EXTT8=
EXTT9=
EXTT10=
EXTT11=
PLAYORDER=
